<svg width="960" height="640" viewBox="0 0 960 640" fill="none" xmlns="http://www.w3.org/2000/svg">
  <rect width="960" height="640" rx="32" fill="#F4F1E8"/>
  <circle cx="728" cy="140" r="156" fill="#D7EDE8"/>
  <circle cx="204" cy="486" r="144" fill="#F3E0C4"/>
  <path d="M92 406C173 307 257 257 343 257C468 257 527 356 646 356C739 356 818 301 888 213" stroke="#0E5E57" stroke-width="18" stroke-linecap="round"/>
  <path d="M72 468C180 365 259 317 347 317C466 317 538 413 658 413C763 413 846 339 919 262" stroke="#A1D3C8" stroke-width="9" stroke-linecap="round"/>
  <path d="M115 197C208 111 300 83 392 83C502 83 575 153 670 153C755 153 824 114 898 51" stroke="#D89B45" stroke-width="10" stroke-linecap="round" opacity="0.7"/>
</svg>
